# xmcd
#
# Track frame offsets:
#	150
#	13739
#	26200
#	41471
#	54971
#	68036
#	80990
#	93977
#	108087
#	122122
#	135582
#	147470
#	159616
#	172841
#	187360
#	201651
#	215369
#	227341
#	242168
#	252929
#	265669
#	279508
#	292391
#	305807
#	319025
#	332708
#
# Disc length: 4613 seconds
# Revision: 0
# Processed by: cddbd v1.5.2PL0 Copyright (c) Steve Scherf et al.
# Submitted via: dBpowerAMP V12.0
#
DISCID=8d12031a
DTITLE=Various Artist - Mississippi Jook Joint Blues, disc 2
DYEAR=2016
DGENRE=Blues
TTITLE0=Tommy McClennon - Whiskey Head
TTITLE1=Peetie Wheatstraw - Gangster's Blues
TTITLE2=Earl Hines and Billy Eckstine - Jelly Jelly
TTITLE3=Lil Green - My Mellow Man
TTITLE4=Sister Rosetta Tharpe - Stand By Me
TTITLE5=Big Bill Broonzy - When I Been Drinking
TTITLE6=Louis Armstrong - 2.19 Blues
TTITLE7=Memphis Slim - Grinder Man Blues
TTITLE8=Buddy Johnson and his Band - New Please Mr. Johnson
TTITLE9=John 'Sonny Boy' Williamson - War Time Blues
TTITLE10=Otis Sheppard - Throw This Dog A Bone
TTITLE11=Bill 'Jazz' Gilliam - Key To The Highway
TTITLE12=Walter Davis - No Place To Go
TTITLE13=Artie Shaw - Blues, pt 1
TTITLE14=Artie Shaw - Blues, pt. 2
TTITLE15=Lil Green - Love Me 
TTITLE16=Louis Jordan - Saxa-Woogie
TTITLE17=Billie Holliday - Solitude
TTITLE18=Count Basie And His Orchestra - Basie Boogie
TTITLE19=Blind Boy Fuller - Passenger Train Woman
TTITLE20=Roosevelt Sykes - She's In My Blood
TTITLE21=Sammy Price - Just Jiving Around
TTITLE22=Louis Jordan - Pinetop's Boogie Woogie
TTITLE23=Washboard Sam - Yes I Got Your Woman
TTITLE24=Jimmy Lunceford - Chocolate
TTITLE25=Count Basie with Jimmy Rushing - Undecided Blues
EXTD=
EXTT0=
EXTT1=
EXTT2=
EXTT3=
EXTT4=
EXTT5=
EXTT6=
EXTT7=
EXTT8=
EXTT9=
EXTT10=
EXTT11=
EXTT12=
EXTT13=
EXTT14=
EXTT15=
EXTT16=
EXTT17=
EXTT18=
EXTT19=
EXTT20=
EXTT21=
EXTT22=
EXTT23=
EXTT24=
EXTT25=
PLAYORDER=
